# xmcd CD database file
#
# Track frame offsets:
#	150
#	15950
#	36687
#
# Disc length: 680 seconds
#
# Revision: 0
# Processed by: cddbd v1.5.1PL2 Copyright (c) Steve Scherf et al.
# Submitted via: CDex 1.51
#
DISCID=1c02a603
DTITLE=Black Rebel Motorcycle Club - Weight Of The World
DYEAR=2005
DGENRE=Blues
TTITLE0=Weight Of The World (Cenzo Mix)
TTITLE1=Mercy
TTITLE2=Feel It Now
EXTD=YEAR: 2005
EXTT0=
EXTT1=
EXTT2=
PLAYORDER=
